<svg width="30" height="30" viewBox="0 0 30 30" fill="none" xmlns="http://www.w3.org/2000/svg">
<path d="M29.9998 29.3478C29.9998 29.708 29.7081 30 29.3476 30H0.652169C0.291715 30 0 29.708 0 29.3478V0.652174C0 0.292043 0.291715 0 0.652169 0C1.01262 0 1.30434 0.292043 1.30434 0.652174V18.913H4.86773C5.23268 18.8764 6.99171 18.8108 8.33622 20.7858C8.54003 21.0848 8.71774 21.3721 8.88078 21.6374C9.33809 22.3784 9.61193 22.7978 9.91891 22.7978C10.3036 22.7978 10.8844 22.7978 12.3518 18.7004C13.3027 16.0448 14.3153 13.0881 14.835 11.5621C15.1942 10.5071 16.1859 9.79859 17.303 9.79859H18.1596C19.3703 9.79859 20.4135 10.6221 20.6969 11.801C21.0548 13.2954 21.2466 13.7059 21.2968 13.7963C21.4873 14.1371 21.8847 14.8469 23.5871 14.4762C25.7709 13.9998 26.2747 14.3813 27.1218 16.1506C27.8204 17.6088 29.8788 20.8837 29.8999 20.9165C30.0915 21.2212 29.9998 21.6241 29.6948 21.8157C29.391 22.0094 28.9878 21.916 28.7955 21.6113C28.7095 21.4743 26.6766 18.2399 25.9454 16.7139C25.5353 15.8588 24.8421 15.5377 23.866 15.7506C22.1076 16.1347 20.8619 15.6901 20.1581 14.4322C20.083 14.2975 19.8562 13.8899 19.4283 12.105C19.2869 11.5152 18.7653 11.1029 18.1596 11.1029H17.303C16.7444 11.1029 16.2489 11.4563 16.0693 11.9824C15.549 13.5119 14.5338 16.4759 13.5797 19.1397C12.2181 22.9426 11.3627 24.1021 9.91891 24.1021C8.86865 24.1021 8.33564 23.2375 7.77073 22.322C7.61721 22.0723 7.45038 21.8016 7.25864 21.5201C6.26513 20.06 5.04994 20.204 5.00025 20.2103C4.97162 20.2142 4.93399 20.2173 4.90536 20.2173H1.3044V28.6956H29.3476C29.7081 28.6956 29.9998 28.9877 29.9998 29.3478ZM29.3476 24.1304H27.3911C27.0307 24.1304 26.7389 24.4225 26.7389 24.7826C26.7389 25.1427 27.0307 25.4348 27.3911 25.4348H29.3476C29.7081 25.4348 29.9998 25.1427 29.9998 24.7826C29.9998 24.4225 29.7081 24.1304 29.3476 24.1304Z" fill="black"/>
</svg>
