<svg width="30" height="30" viewBox="0 0 30 30" fill="none" xmlns="http://www.w3.org/2000/svg">
<path d="M24.5008 21.1345C24.1797 20.6453 21.8265 17.1005 19.8153 15.2254C18.1373 13.6673 15.6257 13.6222 15.341 13.6222C15.3151 13.6223 15.2891 13.6232 15.2636 13.6252H14.6547C14.3857 13.6252 11.9754 13.6695 10.2125 15.2041C8.0375 17.0997 5.63088 20.9229 5.46249 21.1923C4.18759 23.1417 3.40622 24.4094 3.40622 25.8189C3.40622 28.3588 5.33057 30 8.30867 30H21.6923C24.6696 30 26.5934 28.3572 26.5934 25.8147C26.5934 24.3928 25.8101 23.1268 24.5318 21.1794C24.5218 21.1642 24.5115 21.1491 24.5008 21.1345ZM21.6923 28.0332H8.30867C7.23728 28.0332 5.43998 27.7456 5.43998 25.8189C5.43998 24.9956 5.9994 24.0503 7.18698 22.235C7.19091 22.229 7.19485 22.2228 7.19878 22.2166C7.2225 22.1786 9.58926 18.3951 11.5737 16.6657C12.7838 15.6123 14.6375 15.5922 14.6555 15.5921H15.3443C15.3637 15.5921 15.3828 15.5916 15.402 15.5905C15.733 15.6026 17.4004 15.7094 18.4055 16.6426C20.342 18.4483 22.7881 22.195 22.8126 22.2326C22.8236 22.2495 22.835 22.2659 22.8469 22.2819C24.11 24.2091 24.5598 25.0377 24.5598 25.8145C24.5596 27.6483 23.0003 28.0332 21.6923 28.0332Z" fill="black"/>
<path d="M10.0914 11.2408C12.3867 11.2408 14.1845 8.77171 14.1845 5.61979C14.1846 2.46853 12.3867 0 10.0914 0C7.79632 0 5.99847 2.46853 5.99847 5.61979C5.99847 8.77184 7.79632 11.2408 10.0914 11.2408ZM10.0914 1.96675C11.0654 1.96675 12.1507 3.46699 12.1507 5.61979C12.1507 7.77325 11.0653 9.27402 10.0914 9.27402C9.11745 9.27402 8.0321 7.77325 8.0321 5.61979C8.03223 3.46699 9.11745 1.96675 10.0914 1.96675Z" fill="black"/>
<path d="M4.73115 18.0018C5.13126 18.0018 5.51347 17.9222 5.87182 17.7631C7.65638 16.9607 8.1533 14.4423 7.00259 12.0293C6.10977 10.1606 4.45809 8.90515 2.89223 8.90515C2.49171 8.90515 2.10896 8.985 1.75318 9.14339C-0.0338151 9.94307 -0.532358 12.462 0.618616 14.8792C1.51144 16.7468 3.16407 18.0016 4.73088 18.0018H4.73115ZM2.46527 14.0553C1.77705 12.6099 1.97242 11.2123 2.60533 10.9292C2.69197 10.8907 2.78566 10.8719 2.89209 10.8719C3.53069 10.8719 4.54106 11.5666 5.15594 12.8535C5.84416 14.2968 5.64879 15.6945 5.01886 15.9777C4.93182 16.0163 4.83772 16.0351 4.73102 16.0351C4.0916 16.035 3.08001 15.3406 2.46527 14.0553Z" fill="black"/>
<path d="M19.9067 11.2408C22.2012 11.2408 23.9986 8.77171 23.9986 5.61979C23.9986 2.46853 22.2012 0 19.9067 0C17.61 0 15.8111 2.46853 15.8111 5.61979C15.8111 8.77184 17.61 11.2408 19.9067 11.2408ZM19.9067 1.96675C20.8802 1.96675 21.9649 3.46699 21.9649 5.61979C21.9649 7.77325 20.8802 9.27402 19.9067 9.27402C18.9316 9.27402 17.8449 7.77325 17.8449 5.61979C17.8449 3.46699 18.9316 1.96675 19.9067 1.96675Z" fill="black"/>
<path d="M28.2469 9.14372C27.892 8.98481 27.5083 8.90417 27.1065 8.90417C25.5429 8.90417 23.8918 10.16 22.9984 12.0283C21.8425 14.4403 22.3391 16.9596 24.133 17.7654C24.4867 17.9224 24.8691 18.002 25.2692 18.002C26.8364 18.002 28.4886 16.7469 29.3806 14.8785C30.5325 12.4629 30.0343 9.9438 28.2469 9.14372ZM27.534 14.0544C26.9198 15.341 25.9087 16.0351 25.2692 16.0351C25.1623 16.0351 25.0682 16.0163 24.9854 15.9796C24.3487 15.6937 24.1528 14.2967 24.844 12.8545C25.4601 11.566 26.4694 10.8708 27.1065 10.8708C27.2124 10.8708 27.3058 10.8895 27.3921 10.9282C28.0272 11.2127 28.2227 12.6102 27.534 14.0544Z" fill="black"/>
</svg>
