<svg width="30" height="30" viewBox="0 0 30 30" fill="none" xmlns="http://www.w3.org/2000/svg">
<path d="M14.9 1.46857C14.933 1.46966 14.966 1.47076 15 1.47189C15.033 1.47182 15.066 1.47176 15.1 1.47169C15.246 1.51304 15.305 1.58276 15.4 1.70001C15.4227 1.84205 15.4227 1.84205 15.4195 2.00392C15.4186 2.09093 15.4186 2.09093 15.4176 2.1797C15.4151 2.27019 15.4151 2.27019 15.4125 2.36251C15.4116 2.42361 15.4107 2.48472 15.4098 2.54767C15.4074 2.69849 15.4041 2.84923 15.4 3.00001C15.4559 2.99898 15.4559 2.99898 15.513 2.99792C15.8537 2.99435 16.1817 3.01092 16.5187 3.05939C16.5659 3.06611 16.613 3.07284 16.6615 3.07977C19.0592 3.43878 21.3493 4.45487 23.1197 6.12736C23.2304 6.23153 23.3431 6.33039 23.4594 6.42814C24.4108 7.25845 25.1189 8.39217 25.7 9.50001C25.7285 9.55367 25.7285 9.55367 25.7576 9.60841C26.5506 11.1194 27.0195 12.8923 27 14.6C27.0383 14.599 27.0767 14.5979 27.1162 14.5968C27.2899 14.5927 27.4637 14.5901 27.6375 14.5875C27.6978 14.5858 27.7582 14.5842 27.8203 14.5824C27.8783 14.5818 27.9363 14.5811 27.9961 14.5805C28.0495 14.5794 28.1029 14.5784 28.158 14.5773C28.3341 14.6055 28.3912 14.6617 28.5 14.8C28.5266 14.9 28.5266 14.9 28.525 15C28.5255 15.033 28.526 15.066 28.5266 15.1C28.4875 15.247 28.4174 15.305 28.3 15.4C28.158 15.4227 28.158 15.4227 27.9961 15.4195C27.9091 15.4186 27.9091 15.4186 27.8203 15.4176C27.7298 15.4151 27.7298 15.4151 27.6375 15.4125C27.5764 15.4116 27.5153 15.4107 27.4523 15.4098C27.3015 15.4074 27.1508 15.4041 27 15.4C27.0007 15.4334 27.0014 15.4669 27.0021 15.5013C27.0309 17.9804 25.9741 20.5317 24.45 22.45C24.4154 22.4942 24.3808 22.5384 24.3451 22.584C23.9255 23.1095 23.4731 23.6252 22.95 24.05C22.8914 24.0992 22.8328 24.1484 22.7742 24.1977C20.7575 25.8802 18.0563 27.0516 15.4 27C15.401 27.0383 15.4021 27.0767 15.4032 27.1162C15.4073 27.2899 15.4099 27.4637 15.4125 27.6375C15.4142 27.6978 15.4159 27.7582 15.4176 27.8203C15.4182 27.8783 15.4189 27.9363 15.4195 27.9961C15.4206 28.0495 15.4216 28.1029 15.4227 28.158C15.3945 28.3342 15.3382 28.3911 15.2 28.5C15.1 28.5283 15.1 28.5283 15 28.5281C14.967 28.5292 14.934 28.5303 14.9 28.5315C14.7433 28.4822 14.6899 28.3841 14.6 28.25C14.5773 28.1069 14.5773 28.1069 14.5805 27.9522C14.5814 27.8688 14.5814 27.8688 14.5824 27.7837C14.5849 27.6974 14.5849 27.6974 14.5875 27.6094C14.5884 27.5509 14.5893 27.4924 14.5902 27.4321C14.5926 27.2881 14.5959 27.1441 14.6 27C14.5496 27.001 14.5496 27.001 14.4983 27.002C11.4502 27.0354 8.52158 25.4854 6.37356 23.422C6.22113 23.2728 6.08433 23.1154 5.95 22.95C5.90081 22.8914 5.85159 22.8328 5.80234 22.7742C5.21059 22.065 4.72881 21.3176 4.3 20.5C4.28099 20.4642 4.26199 20.4285 4.24241 20.3916C3.44944 18.8807 2.98052 17.1077 3 15.4C2.96344 15.4011 2.92689 15.4021 2.88922 15.4032C2.72303 15.4074 2.55685 15.4099 2.39062 15.4125C2.3331 15.4142 2.27558 15.4159 2.21631 15.4176C2.16072 15.4182 2.10513 15.4189 2.04785 15.4195C1.99679 15.4206 1.94573 15.4216 1.89313 15.4227C1.71257 15.3941 1.62995 15.3259 1.5 15.2C1.4668 15.1 1.4668 15.1 1.46875 15C1.46811 14.967 1.46746 14.934 1.4668 14.9C1.51852 14.7442 1.61589 14.69 1.75 14.6C1.89313 14.5773 1.89313 14.5773 2.04785 14.5805C2.13124 14.5814 2.13124 14.5814 2.21631 14.5824C2.3026 14.5849 2.3026 14.5849 2.39062 14.5875C2.44912 14.5884 2.50761 14.5893 2.56787 14.5902C2.71196 14.5926 2.85596 14.5959 3 14.6C2.99931 14.5666 2.99862 14.5332 2.99791 14.4987C2.9659 11.74 4.25119 8.86632 6.12734 6.88029C6.23151 6.76965 6.33037 6.65689 6.42812 6.54064C7.25844 5.5892 8.39216 4.88106 9.5 4.30001C9.55366 4.2715 9.55366 4.2715 9.6084 4.24242C11.1202 3.44897 12.8924 2.98247 14.6 3.00001C14.599 2.96346 14.5979 2.9269 14.5968 2.88923C14.5927 2.72304 14.5901 2.55686 14.5875 2.39064C14.5858 2.33311 14.5841 2.27559 14.5824 2.21632C14.5818 2.16073 14.5811 2.10514 14.5805 2.04786C14.5794 1.9968 14.5784 1.94575 14.5773 1.89314C14.6087 1.69506 14.7009 1.53118 14.9 1.46857ZM13.5562 4.60939C13.5113 4.61608 13.4664 4.62277 13.4201 4.62966C11.2188 4.97364 9.30089 5.96269 7.7 7.50001C7.66141 7.53656 7.66141 7.53656 7.62205 7.57384C7.22315 7.95261 6.87638 8.35745 6.55 8.80001C6.51088 8.85306 6.47175 8.9061 6.43145 8.96075C6.1377 9.37262 5.88503 9.80244 5.65 10.25C5.63279 10.2827 5.61558 10.3154 5.59785 10.3491C4.92253 11.6545 4.55 13.1315 4.55 14.6C5.5235 14.6 6.497 14.6 7.5 14.6C7.5495 14.237 7.599 13.874 7.65 13.5C7.69126 13.3135 7.73121 13.1399 7.7875 12.9594C7.80037 12.9166 7.81325 12.8738 7.82651 12.8297C8.16293 11.7421 8.69014 10.6874 9.51641 9.88654C9.66166 9.76994 9.66166 9.76994 9.65 9.65001C9.67804 9.63815 9.70607 9.62629 9.73496 9.61407C9.87612 9.53547 9.97467 9.43758 10.0906 9.32501C10.6353 8.81601 11.2753 8.45785 11.95 8.15001C12.0089 8.12275 12.0678 8.09548 12.1285 8.0674C12.4944 7.90939 12.8593 7.8022 13.2469 7.71251C13.2897 7.70257 13.3325 7.69264 13.3767 7.6824C13.7847 7.59366 14.1808 7.55241 14.6 7.50001C14.6 6.52651 14.6 5.55301 14.6 4.55001C14.2379 4.55001 13.9096 4.55642 13.5562 4.60939ZM15.4 4.55001C15.4 5.52351 15.4 6.49701 15.4 7.50001C15.763 7.54951 16.126 7.59901 16.5 7.65001C17.9148 7.96441 19.2309 8.60335 20.25 9.65001C20.283 9.65001 20.316 9.65001 20.35 9.65001C20.3619 9.67805 20.3737 9.70609 20.3859 9.73497C20.4645 9.87613 20.5624 9.97468 20.675 10.0906C21.4971 10.9703 22.0043 12.1162 22.2875 13.275C22.3024 13.3354 22.3024 13.3354 22.3176 13.397C22.4104 13.7986 22.4481 14.1845 22.5 14.6C23.4735 14.6 24.447 14.6 25.45 14.6C25.45 14.2379 25.4436 13.9096 25.3906 13.5563C25.3839 13.5113 25.3772 13.4664 25.3703 13.4201C25.0264 11.2188 24.0373 9.3009 22.5 7.70001C22.4756 7.67429 22.4513 7.64856 22.4262 7.62206C22.0474 7.22316 21.6426 6.87639 21.2 6.55001C21.147 6.51089 21.0939 6.47177 21.0393 6.43146C20.6274 6.13771 20.1976 5.88504 19.75 5.65001C19.7173 5.6328 19.6846 5.61559 19.6509 5.59786C18.3421 4.92076 16.8719 4.55001 15.4 4.55001ZM10.9 10.65C10.8401 10.7038 10.8401 10.7038 10.7789 10.7586C10.2126 11.2928 9.81399 11.9436 9.5 12.65C9.46384 12.73 9.46384 12.73 9.42695 12.8115C9.29303 13.1317 9.20728 13.4554 9.13437 13.7938C9.12579 13.8336 9.1172 13.8735 9.10835 13.9145C9.05987 14.1557 9.05 14.345 9.05 14.6C9.9245 14.6 10.799 14.6 11.7 14.6C11.733 14.4845 11.766 14.369 11.8 14.25C12.0818 13.2918 12.5935 12.5627 13.4807 12.0787C13.7856 11.9291 14.0899 11.8462 14.4223 11.7789C14.5461 11.7628 14.5461 11.7628 14.6 11.7C14.6047 11.6171 14.6059 11.5341 14.6057 11.4511C14.6057 11.398 14.6057 11.345 14.6057 11.2903C14.6054 11.2326 14.6051 11.1749 14.6049 11.1154C14.6048 11.0567 14.6047 10.9979 14.6047 10.9374C14.6044 10.7489 14.6038 10.5604 14.6031 10.3719C14.6029 10.2444 14.6026 10.117 14.6024 9.98956C14.6019 9.67638 14.6011 9.3632 14.6 9.05001C13.2135 9.03414 11.8997 9.73581 10.9 10.65ZM15.4 9.05001C15.4 9.92451 15.4 10.799 15.4 11.7C15.5155 11.733 15.631 11.766 15.75 11.8C16.7082 12.0818 17.4373 12.5935 17.9213 13.4807C18.0709 13.7856 18.1538 14.0899 18.2211 14.4223C18.2372 14.5461 18.2372 14.5461 18.3 14.6C18.3829 14.6047 18.4659 14.6059 18.5489 14.6057C18.6285 14.6057 18.6285 14.6057 18.7097 14.6057C18.7674 14.6054 18.8251 14.6052 18.8846 14.6049C18.9433 14.6048 19.0021 14.6048 19.0626 14.6047C19.2511 14.6044 19.4396 14.6038 19.6281 14.6031C19.7556 14.6029 19.883 14.6027 20.0104 14.6025C20.3236 14.6019 20.6368 14.6011 20.95 14.6C20.9428 14.4967 20.9354 14.3933 20.9278 14.29C20.9217 14.2037 20.9217 14.2037 20.9154 14.1156C20.8954 13.9006 20.8539 13.6985 20.7969 13.4906C20.786 13.4507 20.7752 13.4108 20.764 13.3697C20.4646 12.3221 19.9152 11.4657 19.15 10.7C19.1075 10.6564 19.065 10.6127 19.0213 10.5678C18.0925 9.66462 16.7004 9.05001 15.4 9.05001ZM4.55 15.4C4.55 15.7621 4.55641 16.0904 4.60937 16.4438C4.61941 16.5112 4.61941 16.5112 4.62965 16.5799C4.97384 18.7825 5.96475 20.6961 7.5 22.3C7.52351 22.3249 7.54702 22.3498 7.57124 22.3754C7.95072 22.7753 8.35648 23.1229 8.8 23.45C8.85304 23.4891 8.90609 23.5283 8.96074 23.5686C9.3726 23.8623 9.80243 24.115 10.25 24.35C10.2827 24.3672 10.3154 24.3844 10.3491 24.4022C11.6544 25.0775 13.1311 25.45 14.6 25.45C14.6 24.4765 14.6 23.503 14.6 22.5C14.0802 22.4258 14.0802 22.4258 13.55 22.35C12.43 22.084 11.4243 21.6908 10.5 21C10.4587 20.97 10.4175 20.9399 10.375 20.909C8.76887 19.6886 7.85427 17.8828 7.56548 15.9146C7.54232 15.7432 7.52144 15.5716 7.5 15.4C6.5265 15.4 5.553 15.4 4.55 15.4ZM9.05 15.4C9.05721 15.5034 9.06464 15.6067 9.07216 15.71C9.07627 15.7676 9.08038 15.8251 9.08462 15.8844C9.10459 16.0995 9.14611 16.3015 9.20312 16.5094C9.2139 16.5492 9.22468 16.589 9.23578 16.63C9.65123 18.0877 10.6367 19.3928 11.9514 20.1591C12.1792 20.284 12.4128 20.3943 12.65 20.5C12.7027 20.5241 12.7554 20.5482 12.8098 20.5731C13.3658 20.8077 13.9963 20.95 14.6 20.95C14.6 20.0755 14.6 19.201 14.6 18.3C14.4845 18.267 14.369 18.234 14.25 18.2C13.2918 17.9182 12.5627 17.4065 12.0787 16.5193C11.9291 16.2144 11.8462 15.9101 11.7789 15.5777C11.7628 15.454 11.7628 15.454 11.7 15.4C11.6171 15.3953 11.5341 15.3941 11.4511 15.3943C11.3715 15.3943 11.3715 15.3943 11.2903 15.3943C11.2326 15.3946 11.1749 15.3949 11.1154 15.3951C11.0273 15.3952 11.0273 15.3952 10.9374 15.3953C10.7489 15.3956 10.5604 15.3963 10.3719 15.3969C10.2444 15.3971 10.117 15.3974 9.98955 15.3976C9.67637 15.3981 9.36318 15.399 9.05 15.4ZM18.3 15.4C18.267 15.5155 18.234 15.631 18.2 15.75C17.9182 16.7083 17.4065 17.4373 16.5193 17.9213C16.2144 18.0709 15.9101 18.1538 15.5777 18.2211C15.4539 18.2372 15.4539 18.2372 15.4 18.3C15.3953 18.3829 15.3941 18.4659 15.3943 18.549C15.3943 18.602 15.3943 18.6551 15.3943 18.7097C15.3946 18.7674 15.3949 18.8251 15.3951 18.8846C15.3952 18.9433 15.3953 19.0021 15.3953 19.0626C15.3956 19.2511 15.3962 19.4396 15.3969 19.6281C15.3971 19.7556 15.3974 19.883 15.3976 20.0105C15.3981 20.3236 15.3989 20.6368 15.4 20.95C15.5034 20.9428 15.6067 20.9354 15.71 20.9279C15.7963 20.9217 15.7963 20.9217 15.8844 20.9154C16.0995 20.8954 16.3015 20.8539 16.5094 20.7969C16.5492 20.7861 16.589 20.7753 16.63 20.7642C18.0877 20.3488 19.3928 19.3633 20.1591 18.0486C20.2839 17.8208 20.3945 17.5873 20.5 17.35C20.5241 17.2967 20.5482 17.2434 20.573 17.1885C20.707 16.8683 20.7927 16.5446 20.8656 16.2063C20.8742 16.1664 20.8828 16.1266 20.8916 16.0855C20.9401 15.8443 20.95 15.655 20.95 15.4C20.0755 15.4 19.201 15.4 18.3 15.4ZM22.5 15.4C22.4505 15.7465 22.401 16.093 22.35 16.45C22.084 17.57 21.6908 18.5757 21 19.5C20.97 19.5413 20.9399 19.5825 20.909 19.625C20.4213 20.2668 19.8298 20.8189 19.15 21.25C19.1166 21.2713 19.0832 21.2927 19.0488 21.3146C18.5692 21.6174 18.0888 21.8676 17.55 22.05C17.5168 22.0613 17.4835 22.0725 17.4493 22.0841C16.7781 22.3064 16.0999 22.4125 15.4 22.5C15.4 23.4735 15.4 24.447 15.4 25.45C18.016 25.45 20.4349 24.2853 22.3 22.5C22.3249 22.4765 22.3497 22.453 22.3754 22.4288C22.7753 22.0493 23.1229 21.6435 23.45 21.2C23.4891 21.147 23.5282 21.0939 23.5686 21.0393C23.8623 20.6274 24.115 20.1976 24.35 19.75C24.3672 19.7173 24.3844 19.6846 24.4021 19.6509C25.0775 18.3455 25.45 16.8685 25.45 15.4C24.4765 15.4 23.503 15.4 22.5 15.4Z" fill="black"/>
</svg>
