<svg width="30" height="30" viewBox="0 0 30 30" fill="none" xmlns="http://www.w3.org/2000/svg">
<g clip-path="url(#clip0_296_149)">
<path d="M4.80517 -0.00785549C4.86615 -0.00811669 4.92713 -0.0083779 4.98996 -0.00864701C5.09078 -0.00863081 5.09078 -0.00863081 5.19364 -0.00861428C5.3005 -0.00893743 5.3005 -0.00893743 5.40951 -0.0092671C5.60762 -0.00980204 5.80573 -0.010072 6.00384 -0.0102274C6.21738 -0.0104561 6.43091 -0.0110173 6.64445 -0.0115289C7.16041 -0.0126872 7.67637 -0.0132769 8.19233 -0.0137982C8.43536 -0.014055 8.67839 -0.0143694 8.92142 -0.0146764C9.72947 -0.0156733 10.5375 -0.0165225 11.3456 -0.0169468C11.5553 -0.0170587 11.765 -0.0171713 11.9747 -0.0172859C12.0269 -0.0173142 12.079 -0.0173425 12.1327 -0.0173718C12.9766 -0.0178578 13.8205 -0.0193419 14.6645 -0.0212457C15.5311 -0.0231847 16.3978 -0.0242389 17.2644 -0.024426C17.7509 -0.0245527 18.2374 -0.0250638 18.7239 -0.0265624C19.1384 -0.0278361 19.5528 -0.0283051 19.9673 -0.0277362C20.1786 -0.0274704 20.3899 -0.0275781 20.6012 -0.0287183C20.8308 -0.0299462 21.0603 -0.0293405 21.2898 -0.0285699C21.356 -0.0292126 21.4222 -0.0298554 21.4903 -0.0305176C22.1929 -0.0248387 22.8012 0.209922 23.3167 0.692148C23.8254 1.236 24.0432 1.88022 24.0375 2.61509C24.0377 2.68819 24.0377 2.68819 24.0378 2.76277C24.038 2.92488 24.0374 3.08699 24.0368 3.2491C24.0367 3.36578 24.0367 3.48246 24.0368 3.59913C24.0368 3.91507 24.0361 4.231 24.0353 4.54693C24.0346 4.87741 24.0345 5.20788 24.0344 5.53836C24.034 6.16379 24.0331 6.78923 24.0319 7.41466C24.0306 8.12685 24.0299 8.83905 24.0293 9.55124C24.0281 11.0159 24.0261 12.4806 24.0234 13.9453C24.1073 13.9449 24.1073 13.9449 24.1928 13.9445C24.7195 13.9422 25.2463 13.9404 25.773 13.9392C26.0438 13.9386 26.3146 13.9378 26.5855 13.9365C26.8468 13.9352 27.1082 13.9345 27.3696 13.9342C27.4693 13.934 27.569 13.9336 27.6686 13.9329C27.8083 13.9321 27.948 13.932 28.0877 13.932C28.1289 13.9316 28.17 13.9312 28.2124 13.9307C28.4927 13.9319 28.7029 13.974 28.9329 14.1365C29.036 14.2842 29.0267 14.3982 29.0276 14.5772C29.0287 14.6817 29.0287 14.6817 29.0298 14.7882C29.0296 14.9011 29.0296 14.9011 29.0293 15.0163C29.0296 15.0935 29.0299 15.1707 29.0303 15.2503C29.0308 15.4138 29.0306 15.5772 29.0301 15.7407C29.0294 15.95 29.0306 16.1593 29.0323 16.3686C29.0336 16.5685 29.0332 16.7683 29.033 16.9682C29.0336 17.0433 29.0343 17.1184 29.035 17.1959C29.0344 17.2657 29.0339 17.3355 29.0333 17.4074C29.0333 17.4995 29.0333 17.4995 29.0333 17.5934C28.9963 17.7953 28.9291 17.863 28.7695 17.9883C28.5606 18.0579 28.3716 18.0546 28.1543 18.0535C28.0863 18.0535 28.0863 18.0535 28.0169 18.0536C27.8702 18.0535 27.7235 18.0531 27.5768 18.0526C27.4863 18.0525 27.3957 18.0525 27.3051 18.0524C26.9693 18.0521 26.6335 18.0513 26.2976 18.0505C25.5471 18.0493 24.7967 18.0481 24.0234 18.0469C24.0234 20.6572 24.0234 23.2676 24.0234 25.957C24.2555 25.957 24.4875 25.957 24.7266 25.957C25.3162 26.0367 25.7871 26.3047 26.164 26.7687C26.356 27.0497 26.5088 27.3735 26.543 27.7149C26.5485 27.7683 26.5485 27.7683 26.5542 27.8229C26.5873 28.4116 26.3899 28.977 26.0069 29.4219C25.5746 29.8579 25.1113 30.0189 24.5032 30.0238C24.4368 30.0234 24.3704 30.0231 24.302 30.0227C24.1947 30.0232 24.1947 30.0232 24.0853 30.0237C23.8877 30.0244 23.6901 30.0243 23.4926 30.0238C23.2791 30.0236 23.0657 30.0243 22.8522 30.0249C22.4344 30.0259 22.0166 30.026 21.5988 30.0257C21.2591 30.0254 20.9195 30.0255 20.5798 30.0258C20.5314 30.0259 20.483 30.0259 20.4331 30.0259C20.3348 30.026 20.2365 30.0261 20.1382 30.0262C19.2167 30.027 18.2952 30.0267 17.3737 30.026C16.5313 30.0254 15.6888 30.0262 14.8464 30.0276C13.9807 30.029 13.1151 30.0296 12.2494 30.0292C11.7637 30.029 11.2779 30.0291 10.7922 30.0302C10.3787 30.031 9.96514 30.0311 9.55162 30.03C9.34078 30.0295 9.12997 30.0294 8.91913 30.0303C8.69022 30.0313 8.46134 30.0304 8.23243 30.0294C8.16629 30.0299 8.10015 30.0305 8.032 30.0311C7.42037 30.0254 6.95276 29.857 6.50666 29.4347C6.10886 28.9777 5.9691 28.5278 5.96953 27.9327C5.96948 27.8903 5.96943 27.8479 5.96938 27.8043C5.96928 27.6627 5.9696 27.5211 5.96992 27.3795C5.96994 27.2778 5.96993 27.1762 5.9699 27.0745C5.96988 26.7988 5.97022 26.523 5.97063 26.2473C5.971 25.959 5.97103 25.6708 5.9711 25.3825C5.97129 24.8368 5.97177 24.291 5.97235 23.7453C5.97301 23.1239 5.97333 22.5026 5.97363 21.8812C5.97424 20.6031 5.97527 19.325 5.97657 18.0469C5.90001 18.0478 5.82344 18.0487 5.74456 18.0497C5.4601 18.0529 5.17564 18.0549 4.89117 18.0565C4.76813 18.0574 4.64508 18.0586 4.52204 18.0601C4.34503 18.0623 4.16805 18.0633 3.99102 18.0641C3.93614 18.065 3.88126 18.0659 3.82472 18.0668C3.5358 18.0669 3.33976 18.06 3.10548 17.8711C2.94714 17.7128 2.97443 17.59 2.97371 17.3749C2.97413 17.3217 2.97456 17.2684 2.97499 17.2135C2.97497 17.1575 2.97496 17.1014 2.97494 17.0437C2.97502 16.8579 2.97593 16.6722 2.97685 16.4864C2.97707 16.3578 2.97723 16.2292 2.97735 16.1006C2.9778 15.7618 2.97895 15.4229 2.98025 15.084C2.98144 14.7384 2.98198 14.3928 2.98257 14.0472C2.98383 13.3687 2.98583 12.6902 2.98829 12.0117C2.93835 12.0133 2.88841 12.0148 2.83696 12.0164C2.65078 12.0214 2.46463 12.025 2.2784 12.0278C2.19798 12.0293 2.11756 12.0313 2.03716 12.0338C1.92127 12.0374 1.80532 12.0389 1.68939 12.0403C1.58491 12.0426 1.58491 12.0426 1.47832 12.045C1.22934 12.0012 1.14565 11.9199 0.996106 11.7188C0.959692 11.5539 0.959692 11.5539 0.960057 11.3719C0.959512 11.3034 0.958966 11.235 0.958405 11.1645C0.959365 11.0911 0.960326 11.0178 0.961316 10.9422C0.961313 10.8664 0.961311 10.7906 0.961308 10.7126C0.961405 10.5525 0.962497 10.3926 0.964348 10.2325C0.966676 10.0277 0.966929 9.82288 0.966489 9.61802C0.966266 9.42219 0.967486 9.22637 0.96864 9.03054C0.968652 8.95705 0.968663 8.88356 0.968676 8.80785C0.969608 8.7396 0.97054 8.67135 0.971501 8.60103C0.971994 8.54102 0.972487 8.48101 0.972996 8.41918C0.999625 8.23775 1.04453 8.15772 1.17189 8.02735C1.36861 7.96178 1.51654 7.9621 1.72372 7.96304C1.79717 7.96323 1.87063 7.96341 1.94631 7.96361C2.06147 7.96435 2.06147 7.96435 2.17897 7.9651C2.25721 7.96539 2.33545 7.96566 2.41369 7.9659C2.60522 7.96659 2.79676 7.96755 2.98829 7.96876C2.98808 7.93608 2.98786 7.9034 2.98764 7.86974C2.98245 7.0725 2.97859 6.27527 2.97615 5.47802C2.97493 5.09247 2.97327 4.70693 2.97061 4.32138C2.96806 3.94906 2.96666 3.57676 2.96606 3.20443C2.96562 3.06263 2.96478 2.92084 2.96351 2.77904C2.9618 2.57989 2.96158 2.38078 2.96169 2.18162C2.96084 2.12346 2.96 2.0653 2.95913 2.00538C2.96279 1.38128 3.17563 0.930269 3.60261 0.480661C3.94179 0.183614 4.35288 -0.00695785 4.80517 -0.00785549ZM4.20045 1.43922C4.06479 1.63517 4.03566 1.78233 4.03593 2.01475C4.03585 2.06725 4.03577 2.11975 4.03569 2.17385C4.0359 2.23129 4.03611 2.28874 4.03633 2.34792C4.03632 2.40853 4.03631 2.46913 4.0363 2.53157C4.03634 2.73226 4.0368 2.93294 4.03726 3.13363C4.03737 3.27263 4.03745 3.41163 4.03751 3.55063C4.03773 3.91677 4.03831 4.28291 4.03896 4.64905C4.03956 5.02255 4.03982 5.39605 4.04012 5.76955C4.04075 6.50262 4.04178 7.23569 4.04298 7.96876C4.68107 7.96876 5.31915 7.96876 5.97657 7.96876C5.98187 7.17469 5.98617 6.38063 5.98872 5.58655C5.98994 5.21781 5.9916 4.84908 5.99426 4.48034C5.99681 4.12436 5.9982 3.76839 5.99881 3.4124C5.99924 3.27672 6.00009 3.14104 6.00135 3.00537C6.00306 2.81503 6.00329 2.62474 6.00318 2.4344C6.00402 2.37855 6.00487 2.32271 6.00574 2.26517C6.00356 1.91116 5.94461 1.64276 5.7422 1.34767C5.45619 1.07561 5.21679 1.03376 4.83422 1.03822C4.54534 1.07067 4.38797 1.23143 4.20045 1.43922ZM6.79689 1.0547C6.8093 1.09339 6.82172 1.13208 6.83452 1.17195C6.99447 1.68425 6.99447 1.68425 6.99603 1.95134C6.99676 2.00528 6.9975 2.05922 6.99826 2.11479C6.99817 2.17197 6.99809 2.22915 6.998 2.28805C6.9986 2.35085 6.99921 2.41365 6.99983 2.47835C7.00156 2.67961 7.00213 2.88086 7.00265 3.08213C7.00356 3.20719 7.00454 3.33225 7.00561 3.45731C7.00899 3.91864 7.01088 4.37998 7.01295 4.84132C7.01899 5.87337 7.02504 6.90543 7.03126 7.96876C9.81564 7.96876 12.6 7.96876 15.4688 7.96876C15.4881 7.75606 15.5074 7.54337 15.5274 7.32423C15.6706 7.11547 15.7443 7.04581 15.9924 6.9983C16.3617 7.06613 16.6398 7.35736 16.9153 7.59889C16.988 7.66196 17.0608 7.72498 17.1336 7.78794C17.1872 7.8342 17.1872 7.8342 17.2417 7.88138C17.4333 8.04548 17.6297 8.20365 17.8256 8.36266C18.0409 8.53926 18.2531 8.71953 18.4651 8.90008C18.7312 9.12612 19.0019 9.34587 19.2746 9.56384C19.449 9.71531 19.4516 9.77023 19.4763 10.007C19.4731 10.2132 19.4569 10.2491 19.322 10.4221C19.2631 10.4737 19.203 10.5237 19.1419 10.5725C19.1099 10.5998 19.078 10.6271 19.0451 10.6551C18.9479 10.7377 18.8492 10.8182 18.75 10.8984C18.6961 10.9432 18.6422 10.988 18.5866 11.0342C18.4823 11.1201 18.3776 11.2055 18.2723 11.2903C18.0875 11.4404 17.9059 11.5938 17.7246 11.7481C17.4339 11.9948 17.1422 12.2403 16.8453 12.4796C16.7528 12.5544 16.6614 12.6305 16.5715 12.7084C16.3755 12.8716 16.2379 12.9705 15.9778 12.9785C15.7617 12.9492 15.7617 12.9492 15.5859 12.832C15.5274 12.6563 15.5274 12.6563 15.4688 12.0117C12.6844 12.0117 9.90001 12.0117 7.03126 12.0117C7.02443 14.8864 7.02443 14.8864 7.01982 17.7611C7.01936 18.1486 7.01889 18.5361 7.01839 18.9236C7.01829 18.9965 7.01829 18.9965 7.0182 19.0708C7.01718 19.8549 7.01533 20.639 7.01318 21.4231C7.01099 22.2277 7.00969 23.0324 7.00921 23.8371C7.00889 24.3336 7.00787 24.8302 7.00597 25.3267C7.00473 25.6672 7.00435 26.0076 7.00466 26.3481C7.00481 26.5446 7.00445 26.741 7.00332 26.9375C7.00216 27.1506 7.00244 27.3636 7.00308 27.5767C7.00239 27.6387 7.00171 27.7006 7.00101 27.7645C7.004 28.1322 7.04797 28.3526 7.26564 28.6524C7.56856 28.9264 7.75753 28.966 8.1585 28.9618C8.45887 28.9312 8.61243 28.7768 8.80738 28.5608C8.97658 28.3164 8.9742 28.0967 8.97721 27.8103C8.97886 27.7238 8.98054 27.6373 8.98225 27.5509C8.98467 27.4148 8.98683 27.2788 8.98837 27.1427C8.98999 27.0112 8.99268 26.8798 8.99553 26.7483C8.99572 26.7078 8.99591 26.6672 8.9961 26.6255C9.00215 26.3881 9.02512 26.2416 9.19923 26.0742C9.43615 25.9953 9.66512 26.0066 9.91222 26.0064C9.99571 26.0059 9.99571 26.0059 10.0809 26.0055C10.2682 26.0046 10.4555 26.0041 10.6428 26.0036C10.7768 26.003 10.9107 26.0025 11.0447 26.0018C11.4091 26.0003 11.7734 25.999 12.1378 25.9979C12.5183 25.9966 12.8989 25.995 13.2794 25.9934C13.9183 25.9908 14.5572 25.9884 15.1961 25.9862C15.8543 25.9839 16.5124 25.9814 17.1705 25.9789C17.232 25.9786 17.232 25.9786 17.2947 25.9784C17.6511 25.977 18.0075 25.9756 18.3639 25.9741C19.8988 25.9681 21.4338 25.9626 22.9688 25.957C22.9688 23.3467 22.9688 20.7363 22.9688 18.0469C20.1844 18.0469 17.4 18.0469 14.5313 18.0469C14.5119 18.2596 14.4926 18.4723 14.4727 18.6914C14.2969 18.9258 14.2969 18.9258 14.1065 18.9844C13.6707 18.9844 13.3609 18.6651 13.0518 18.3875C12.9742 18.319 12.8965 18.2505 12.8188 18.1822C12.7811 18.1489 12.7433 18.1157 12.7045 18.0814C12.5118 17.9134 12.3127 17.7534 12.114 17.5926C11.8976 17.4155 11.685 17.2342 11.4722 17.0528C11.2238 16.8419 10.9701 16.6387 10.7126 16.439C10.5457 16.2967 10.5471 16.2327 10.5249 16.0071C10.5162 15.8888 10.5162 15.8888 10.5469 15.7617C10.7597 15.5189 11.0129 15.3131 11.2573 15.1025C11.2962 15.069 11.335 15.0354 11.3751 15.0008C11.6473 14.7665 11.9233 14.5374 12.2024 14.3113C12.3528 14.1882 12.5014 14.0634 12.6495 13.9374C12.7463 13.855 12.8435 13.773 12.9408 13.691C13.0578 13.5924 13.1737 13.4927 13.2891 13.3921C13.7667 12.987 13.7667 12.987 14.1211 13.0078C14.2938 13.0867 14.3873 13.13 14.4727 13.3008C14.492 13.5135 14.5113 13.7262 14.5313 13.9453C17.3156 13.9453 20.1 13.9453 22.9688 13.9453C22.9739 11.8739 22.9739 11.8739 22.9773 9.80256C22.9784 8.95795 22.9796 8.11334 22.982 7.26872C22.9838 6.65362 22.9849 6.03851 22.9853 5.42341C22.9855 5.09773 22.9861 4.77207 22.9873 4.4464C22.9885 4.13976 22.9889 3.83313 22.9886 3.52648C22.9887 3.41405 22.989 3.30162 22.9897 3.18919C22.9906 3.03539 22.9904 2.88163 22.9899 2.72783C22.9904 2.6836 22.9909 2.63937 22.9915 2.59379C22.9881 2.18841 22.8813 1.82092 22.6099 1.5088C22.5795 1.47224 22.5491 1.43568 22.5179 1.39802C22.1221 1.0787 21.7154 1.02059 21.2204 1.02651C21.1584 1.02631 21.0965 1.02611 21.0327 1.02591C20.8262 1.02552 20.6198 1.02681 20.4133 1.02809C20.2648 1.02816 20.1164 1.02812 19.968 1.02799C19.649 1.02793 19.3299 1.02859 19.0109 1.02992C18.5497 1.03183 18.0885 1.03243 17.6272 1.03273C16.8788 1.03324 16.1304 1.0348 15.382 1.03702C14.6552 1.03917 13.9284 1.04083 13.2016 1.04182C13.1344 1.04191 13.1344 1.04191 13.0658 1.04201C12.8408 1.04231 12.6158 1.04261 12.3909 1.0429C10.5262 1.04533 8.66154 1.04947 6.79689 1.0547ZM16.5234 8.67188C16.5077 8.70935 16.492 8.74681 16.4758 8.78541C16.4063 8.90626 16.4063 8.90626 16.2305 8.96485C16.1496 8.97034 16.0685 8.97268 15.9874 8.97298C15.9377 8.9733 15.8879 8.97362 15.8367 8.97395C15.782 8.97401 15.7273 8.97406 15.671 8.97412C15.613 8.97441 15.5549 8.9747 15.4951 8.975C15.2997 8.9759 15.1043 8.97639 14.9089 8.97688C14.7691 8.97744 14.6294 8.97803 14.4897 8.97864C14.1491 8.98006 13.8085 8.98122 13.4679 8.98226C13.0716 8.98348 12.6754 8.98503 12.2791 8.98661C11.5724 8.9894 10.8657 8.99193 10.159 8.99431C9.47245 8.99661 8.7859 8.99904 8.09935 9.00163C8.03589 9.00187 8.03589 9.00187 7.97115 9.00211C7.7589 9.00292 7.54665 9.00372 7.33441 9.00453C5.5732 9.0112 3.812 9.01745 2.05079 9.02345C2.05079 9.66153 2.05079 10.2996 2.05079 10.957C2.31408 10.9576 2.31408 10.9576 2.58269 10.9581C4.19189 10.9613 5.80108 10.9654 7.41027 10.9705C7.62113 10.9711 7.83199 10.9718 8.04285 10.9724C8.08483 10.9725 8.12681 10.9727 8.17006 10.9728C8.84998 10.9749 9.5299 10.9763 10.2098 10.9776C10.9074 10.9788 11.6049 10.9808 12.3025 10.9833C12.6943 10.9847 13.0861 10.9858 13.478 10.9862C13.8466 10.9866 14.2153 10.9877 14.5839 10.9895C14.7193 10.99 14.8548 10.9902 14.9903 10.9901C15.1749 10.99 15.3595 10.991 15.5442 10.9923C15.5981 10.992 15.6519 10.9917 15.7074 10.9914C16.0528 10.9953 16.2536 11.0493 16.5125 11.2903C16.5354 11.3157 16.5584 11.341 16.582 11.3672C16.6169 11.3352 16.6517 11.3033 16.6876 11.2704C17.0527 10.9382 17.4288 10.623 17.8125 10.3125C17.9301 10.2153 18.0471 10.1175 18.1641 10.0195C17.9434 9.79303 17.7125 9.58379 17.4719 9.37867C17.4359 9.34787 17.3998 9.31708 17.3627 9.28534C16.9717 8.89542 16.9717 8.89542 16.5234 8.67188ZM4.04298 12.0117C4.04298 13.6553 4.04298 15.2988 4.04298 16.9922C4.68107 16.9922 5.31915 16.9922 5.97657 16.9922C5.97657 15.3486 5.97657 13.7051 5.97657 12.0117C5.33849 12.0117 4.7004 12.0117 4.04298 12.0117ZM13.418 14.6484C13.362 14.6973 13.306 14.7462 13.2484 14.7965C12.803 15.1845 12.3548 15.5672 11.8945 15.9375C11.9875 16.1943 12.189 16.34 12.3926 16.5088C12.4292 16.5396 12.4657 16.5703 12.5034 16.602C12.6126 16.6935 12.7222 16.7843 12.832 16.875C12.863 16.9008 12.8941 16.9267 12.926 16.9533C13.1998 17.2217 13.1998 17.2217 13.5352 17.3438C13.5521 17.3063 13.569 17.2688 13.5864 17.2302C13.6524 17.1094 13.6524 17.1094 13.7695 17.0508C13.848 17.0451 13.9267 17.043 14.0054 17.0427C14.055 17.0423 14.1047 17.042 14.1558 17.0417C14.2106 17.0416 14.2655 17.0416 14.322 17.0415C14.38 17.0412 14.438 17.0409 14.4977 17.0406C14.6933 17.0397 14.8889 17.0393 15.0845 17.0388C15.2242 17.0382 15.3639 17.0376 15.5036 17.037C15.8445 17.0356 16.1853 17.0344 16.5261 17.0334C16.9225 17.0322 17.319 17.0306 17.7154 17.029C18.4225 17.0262 19.1295 17.0237 19.8366 17.0213C20.5235 17.019 21.2105 17.0166 21.8975 17.014C21.9398 17.0139 21.9821 17.0137 22.0257 17.0135C22.238 17.0127 22.4503 17.0119 22.6627 17.0111C24.4249 17.0044 26.187 16.9982 27.9492 16.9922C27.9492 16.3348 27.9492 15.6774 27.9492 15C27.7724 14.9999 27.5955 14.9998 27.4133 14.9998C25.7915 14.9989 24.1697 14.9965 22.548 14.9926C22.3354 14.9921 22.1229 14.9916 21.9103 14.9911C21.8469 14.9909 21.8469 14.9909 21.7821 14.9908C21.0969 14.9892 20.4117 14.9887 19.7265 14.9885C19.0235 14.9883 18.3205 14.9871 17.6174 14.9847C17.2225 14.9835 16.8276 14.9827 16.4327 14.9832C16.0612 14.9837 15.6896 14.9828 15.318 14.9808C15.1816 14.9803 15.0451 14.9803 14.9086 14.9809C14.7224 14.9816 14.5363 14.9804 14.3501 14.9789C14.2689 14.9798 14.2689 14.9798 14.186 14.9808C13.9262 14.9767 13.7619 14.9614 13.5575 14.7926C13.5114 14.745 13.4654 14.6975 13.418 14.6484ZM10.0195 27.0117C10.0184 27.0516 10.0172 27.0914 10.016 27.1324C10.0104 27.3156 10.004 27.4988 9.99757 27.6819C9.99576 27.7445 9.99394 27.8072 9.99208 27.8718C9.9784 28.2445 9.93721 28.5841 9.84376 28.9453C11.7402 28.9507 13.6367 28.9548 15.5332 28.9573C15.7571 28.9576 15.981 28.9579 16.2049 28.9582C16.2718 28.9583 16.2718 28.9583 16.34 28.9584C17.0617 28.9594 17.7834 28.9613 18.5051 28.9634C19.2457 28.9656 19.9863 28.9669 20.7268 28.9674C21.1838 28.9677 21.6407 28.9687 22.0977 28.9706C22.4481 28.972 22.7986 28.9721 23.149 28.9718C23.2927 28.9719 23.4364 28.9724 23.5802 28.9733C23.7763 28.9744 23.9724 28.9741 24.1686 28.9735C24.254 28.9745 24.254 28.9745 24.3412 28.9756C24.6962 28.9724 24.9049 28.9189 25.1953 28.7109C25.4094 28.4631 25.503 28.2184 25.4883 27.8906C25.4382 27.63 25.3465 27.4318 25.1477 27.2534C24.776 27.0056 24.446 26.995 24.0132 26.9976C23.9234 26.9975 23.9234 26.9975 23.8318 26.9973C23.6312 26.9971 23.4307 26.9978 23.2302 26.9984C23.0864 26.9985 22.9426 26.9984 22.7988 26.9984C22.4893 26.9983 22.1798 26.9987 21.8702 26.9993C21.4227 27.0003 20.9752 27.0006 20.5277 27.0007C19.8016 27.001 19.0755 27.0018 18.3494 27.0029C17.6442 27.004 16.9389 27.0048 16.2337 27.0053C16.1902 27.0053 16.1467 27.0054 16.1019 27.0054C15.8837 27.0055 15.6656 27.0057 15.4474 27.0058C13.6381 27.007 11.8288 27.0091 10.0195 27.0117Z" fill="black"/>
<path d="M10.957 23.9648C14.2828 23.9648 17.6086 23.9648 21.0352 23.9648C21.0352 24.3129 21.0352 24.6609 21.0352 25.0195C17.7094 25.0195 14.3836 25.0195 10.957 25.0195C10.957 24.6715 10.957 24.3234 10.957 23.9648Z" fill="black"/>
<path d="M10.957 21.9727C14.2828 21.9727 17.6086 21.9727 21.0352 21.9727C21.0352 22.3207 21.0352 22.6688 21.0352 23.0273C17.7094 23.0273 14.3836 23.0273 10.957 23.0273C10.957 22.6793 10.957 22.3312 10.957 21.9727Z" fill="black"/>
<path d="M8.96484 4.98047C10.6277 4.98047 12.2906 4.98047 14.0039 4.98047C14.0039 5.32852 14.0039 5.67656 14.0039 6.03516C12.341 6.03516 10.6781 6.03516 8.96484 6.03516C8.96484 5.68711 8.96484 5.33906 8.96484 4.98047Z" fill="black"/>
<path d="M8.96484 2.98828C10.6277 2.98828 12.2906 2.98828 14.0039 2.98828C14.0039 3.33633 14.0039 3.68438 14.0039 4.04297C12.341 4.04297 10.6781 4.04297 8.96484 4.04297C8.96484 3.69492 8.96484 3.34687 8.96484 2.98828Z" fill="black"/>
<path d="M17.9883 19.9805C18.9937 19.9805 19.9992 19.9805 21.0352 19.9805C21.0352 20.3285 21.0352 20.6766 21.0352 21.0352C20.0297 21.0352 19.0242 21.0352 17.9883 21.0352C17.9883 20.6871 17.9883 20.3391 17.9883 19.9805Z" fill="black"/>
</g>
<defs>
<clipPath id="clip0_296_149">
<rect width="30" height="30" fill="white"/>
</clipPath>
</defs>
</svg>
