<svg width="30" height="30" viewBox="0 0 30 30" fill="none" xmlns="http://www.w3.org/2000/svg">
<path d="M27.5 18.2323C27.4991 17.5123 27.2499 16.8146 26.7945 16.2569C26.3391 15.6991 25.7053 15.3155 25 15.1706V13.2323C24.9991 12.4038 24.6696 11.6095 24.0838 11.0236C23.4979 10.4377 22.7035 10.1082 21.875 10.1073H20.8837L15.3345 4.5581C14.748 3.973 13.9534 3.64441 13.125 3.64441C12.2966 3.64441 11.502 3.973 10.9155 4.5581L5.3375 10.1366C4.56392 10.2065 3.84427 10.5626 3.31944 11.1352C2.79461 11.7078 2.50239 12.4556 2.5 13.2323V23.2323C2.50086 24.0609 2.83038 24.8552 3.41624 25.4411C4.00211 26.027 4.79646 26.3565 5.625 26.3573H21.875C22.7035 26.3565 23.4979 26.027 24.0838 25.4411C24.6696 24.8552 24.9991 24.0609 25 23.2323V21.2941C25.7053 21.1492 26.3391 20.7656 26.7945 20.2079C27.2499 19.6501 27.4991 18.9524 27.5 18.2323ZM11.8 5.44185C12.1518 5.09071 12.6286 4.89349 13.1256 4.89349C13.6227 4.89349 14.0994 5.09071 14.4512 5.44185L19.1162 10.1073H7.13375L11.8 5.44185ZM21.875 25.1073H5.625C5.12788 25.1068 4.65128 24.9091 4.29976 24.5576C3.94824 24.2061 3.75053 23.7295 3.75 23.2323V13.2323C3.75056 12.7352 3.94829 12.2587 4.2998 11.9071C4.6513 11.5556 5.12789 11.3579 5.625 11.3573H21.875C22.3721 11.3579 22.8487 11.5556 23.2002 11.9071C23.5517 12.2587 23.7494 12.7352 23.75 13.2323V15.1073H21.875C21.0462 15.1073 20.2513 15.4366 19.6653 16.0226C19.0792 16.6087 18.75 17.4035 18.75 18.2323C18.75 19.0611 19.0792 19.856 19.6653 20.4421C20.2513 21.0281 21.0462 21.3573 21.875 21.3573H23.75V23.2323C23.7495 23.7295 23.5518 24.2061 23.2002 24.5576C22.8487 24.9091 22.3721 25.1068 21.875 25.1073ZM24.375 20.1073H21.875C21.3777 20.1073 20.9008 19.9098 20.5492 19.5582C20.1975 19.2065 20 18.7296 20 18.2323C20 17.7351 20.1975 17.2582 20.5492 16.9065C20.9008 16.5549 21.3777 16.3573 21.875 16.3573H24.375C24.8723 16.3573 25.3492 16.5549 25.7008 16.9065C26.0525 17.2582 26.25 17.7351 26.25 18.2323C26.25 18.7296 26.0525 19.2065 25.7008 19.5582C25.3492 19.9098 24.8723 20.1073 24.375 20.1073Z" fill="black"/>
</svg>
